<svg width="86" height="86" viewBox="0 0 86 86" fill="none" xmlns="http://www.w3.org/2000/svg">
<path d="M8.03937 3H45.8346H76.7008C81.2362 3 82.3701 6.69231 82.3701 8.53846C82.5801 27.4103 83 66.8769 83 73.7692C83 80.6615 80.0604 82.3846 78.5906 82.3846C60.1129 82.5897 21.1417 83 13.0787 83C5.01575 83 3 78.4872 3 76.2308V12.2308C3 4.84615 6.35958 3 8.03937 3Z" stroke="black" stroke-width="5"/>
<path d="M47.0945 17.1538H67.252M42.0552 46.6923H67.252M42.0552 62.0769H67.252" stroke="black" stroke-width="8"/>
<ellipse cx="16.8582" cy="17.1538" rx="5.03937" ry="4.92308" fill="black"/>
<ellipse cx="31.9764" cy="17.1538" rx="5.03937" ry="4.92308" fill="black"/>
<path d="M3 31.9231H26.937M82.3701 31.9231H26.937M26.937 31.9231V83" stroke="black" stroke-width="5"/>
</svg>
