<svg width="30" height="30" viewBox="0 0 30 30" fill="none" xmlns="http://www.w3.org/2000/svg">
<path d="M25 8.71594H5C3.61929 8.71594 2.5 9.83088 2.5 11.2062V23.6576C2.5 25.0329 3.61929 26.1478 5 26.1478H25C26.3807 26.1478 27.5 25.0329 27.5 23.6576V11.2062C27.5 9.83088 26.3807 8.71594 25 8.71594Z" fill="#1A1A1A" stroke="#1A1A1A" stroke-width="2" stroke-linecap="round" stroke-linejoin="round"/>
<path d="M20.2212 25.7595V4.73055C20.2212 4.0334 19.9578 3.3648 19.489 2.87183C19.0201 2.37887 18.3842 2.10193 17.7212 2.10193H12.7212C12.0582 2.10193 11.4223 2.37887 10.9534 2.87183C10.4846 3.3648 10.2212 4.0334 10.2212 4.73055V25.7595" stroke="#1A1A1A" stroke-width="2" stroke-linecap="round" stroke-linejoin="round"/>
</svg>
